<?xml version="1.0" encoding="UTF-8" standalone="no"?>
<svg
   xmlns:dc="http://purl.org/dc/elements/1.1/"
   xmlns:cc="http://creativecommons.org/ns#"
   xmlns:rdf="http://www.w3.org/1999/02/22-rdf-syntax-ns#"
   xmlns:svg="http://www.w3.org/2000/svg"
   xmlns="http://www.w3.org/2000/svg"
   xmlns:sodipodi="http://sodipodi.sourceforge.net/DTD/sodipodi-0.dtd"
   xmlns:inkscape="http://www.inkscape.org/namespaces/inkscape"
   width="24"
   height="24"
   viewBox="0 0 24 24"
   version="1.1"
   id="svg4550"
   sodipodi:docname="openIcon.svg"
   inkscape:version="0.92.3 (2405546, 2018-03-11)"
   inkscape:export-filename="D:\Projekte\cTelemetry\icons\OpenIcon.png"
   inkscape:export-xdpi="96"
   inkscape:export-ydpi="96">
  <metadata
     id="metadata4556">
    <rdf:RDF>
      <cc:Work
         rdf:about="">
        <dc:format>image/svg+xml</dc:format>
        <dc:type
           rdf:resource="http://purl.org/dc/dcmitype/StillImage" />
        <dc:title></dc:title>
      </cc:Work>
    </rdf:RDF>
  </metadata>
  <defs
     id="defs4554" />
  <sodipodi:namedview
     pagecolor="#ffffff"
     bordercolor="#666666"
     borderopacity="1"
     objecttolerance="10"
     gridtolerance="10"
     guidetolerance="10"
     inkscape:pageopacity="0"
     inkscape:pageshadow="2"
     inkscape:window-width="1920"
     inkscape:window-height="1001"
     id="namedview4552"
     showgrid="false"
     inkscape:zoom="33.666667"
     inkscape:cx="12"
     inkscape:cy="12"
     inkscape:window-x="-9"
     inkscape:window-y="-9"
     inkscape:window-maximized="1"
     inkscape:current-layer="svg4550" />
  <path
     id="path4568"
     d="m 3.779703,3.1930693 a 0.25,0.25 0 0 0 -0.25,0.25 V 17.943069 c 0,0.138 0.112,0.25 0.25,0.25 h 16.5 a 0.25,0.25 0 0 0 0.25,-0.25 V 6.3800693 a 0.25,0.25 0 0 0 -0.25,-0.25 h -8.471 a 1.75,1.75 0 0 1 -1.447,-0.765 l -1.404,-2.062 a 0.25,0.25 0 0 0 -0.208,-0.11 z m -1.75,0.25 c 0,-0.966 0.784,-1.75 1.75,-1.75 h 4.971 c 0.58,0 1.12,0.286 1.447,0.765 l 1.404,2.063 a 0.25,0.25 0 0 0 0.207,0.11 h 8.471 c 0.966,0 1.75,0.783 1.75,1.75 V 17.943069 a 1.75,1.75 0 0 1 -1.75,1.75 h -16.5 a 1.75,1.75 0 0 1 -1.75,-1.75 z"
     inkscape:connector-curvature="0"
     style="fill-rule:evenodd;fill:#000000;fill-opacity:1" />
  <path
     d="m 11.320081,3.4430693 c 0.569018,-0.966 1.814829,-1.75 2.780829,-1.75 h 4.971 c 0.58,0 0.951533,0.286 0.996381,0.765 l 0.1888,2.063 a 0.18698685,0.3342481 53.205444 0 0 0.142205,0.11 h 8.471 c 0.966,0 1.288778,0.783 0.719171,1.75 L 22.778929,17.943069 a 1.3089079,2.3397367 53.205444 0 1 -2.780829,1.75 H 3.4980999 a 1.3089079,2.3397367 53.205444 0 1 -0.7191712,-1.75 z"
     id="path4548"
     style="fill:#424242;fill-opacity:1;fill-rule:evenodd;stroke:none;stroke-opacity:1"
     inkscape:connector-curvature="0" />
</svg>
